<svg width="88" height="44" viewBox="0 0 88 44" fill="none" xmlns="http://www.w3.org/2000/svg">
<g clip-path="url(#clip0_493_6875)">
<g opacity="0.06">
<path d="M7.34167 7.33203H4.59225C4.0861 7.33203 3.67578 7.74235 3.67578 8.2485V28.4109C3.67578 28.917 4.0861 29.3273 4.59225 29.3273H7.34167C7.84782 29.3273 8.25814 28.917 8.25814 28.4109V8.2485C8.25814 7.74235 7.84782 7.33203 7.34167 7.33203Z" fill="#9CA3AF"/>
<path d="M12.8402 10.998H11.0073C10.5011 10.998 10.0908 11.4084 10.0908 11.9145V28.411C10.0908 28.9172 10.5011 29.3275 11.0073 29.3275H12.8402C13.3464 29.3275 13.7567 28.9172 13.7567 28.411V11.9145C13.7567 11.4084 13.3464 10.998 12.8402 10.998Z" fill="#B0B7C3"/>
<path d="M67.829 9.16504H65.0796C64.5734 9.16504 64.1631 9.57536 64.1631 10.0815V28.4109C64.1631 28.9171 64.5734 29.3274 65.0796 29.3274H67.829C68.3351 29.3274 68.7454 28.9171 68.7454 28.4109V10.0815C68.7454 9.57536 68.3351 9.16504 67.829 9.16504Z" fill="#B0B7C3"/>
<path d="M73.3275 5.49902H71.4946C70.9884 5.49902 70.5781 5.90934 70.5781 6.41549V28.4108C70.5781 28.917 70.9884 29.3273 71.4946 29.3273H73.3275C73.8337 29.3273 74.244 28.917 74.244 28.4108V6.41549C74.244 5.90934 73.8337 5.49902 73.3275 5.49902Z" fill="#9CA3AF"/>
</g>
<path d="M80.6594 7.33203H7.34167C5.31705 7.33203 3.67578 8.9733 3.67578 10.9979V31.1603C3.67578 33.1849 5.31705 34.8262 7.34167 34.8262H80.6594C82.684 34.8262 84.3253 33.1849 84.3253 31.1603V10.9979C84.3253 8.9733 82.684 7.33203 80.6594 7.33203Z" fill="#E5E7EB" stroke="#B0B7C3" stroke-width="1.09977"/>
<path d="M14.307 12.8311H10.4579C9.74925 12.8311 9.1748 13.4055 9.1748 14.1141V19.7962C9.1748 20.5049 9.74925 21.0793 10.4579 21.0793H14.307C15.0157 21.0793 15.5901 20.5049 15.5901 19.7962V14.1141C15.5901 13.4055 15.0157 12.8311 14.307 12.8311Z" fill="#A8D4E6" stroke="#8ABDD4" stroke-width="0.549883"/>
<path d="M23.4721 12.8311H19.6229C18.9143 12.8311 18.3398 13.4055 18.3398 14.1141V19.7962C18.3398 20.5049 18.9143 21.0793 19.6229 21.0793H23.4721C24.1807 21.0793 24.7551 20.5049 24.7551 19.7962V14.1141C24.7551 13.4055 24.1807 12.8311 23.4721 12.8311Z" fill="#A8D4E6" stroke="#8ABDD4" stroke-width="0.549883"/>
<path d="M32.6371 12.8301H28.7879C28.0793 12.8301 27.5049 13.4045 27.5049 14.1131V19.7953C27.5049 20.5039 28.0793 21.0783 28.7879 21.0783H32.6371C33.3457 21.0783 33.9202 20.5039 33.9202 19.7953V14.1131C33.9202 13.4045 33.3457 12.8301 32.6371 12.8301Z" fill="#A8D4E6" stroke="#8ABDD4" stroke-width="0.549883"/>
<path d="M41.8012 12.8311H37.952C37.2434 12.8311 36.6689 13.4055 36.6689 14.1141V19.7962C36.6689 20.5049 37.2434 21.0793 37.952 21.0793H41.8012C42.5098 21.0793 43.0842 20.5049 43.0842 19.7962V14.1141C43.0842 13.4055 42.5098 12.8311 41.8012 12.8311Z" fill="#A8D4E6" stroke="#8ABDD4" stroke-width="0.549883"/>
<path d="M50.9662 12.8311H47.117C46.4084 12.8311 45.834 13.4055 45.834 14.1141V19.7962C45.834 20.5049 46.4084 21.0793 47.117 21.0793H50.9662C51.6748 21.0793 52.2493 20.5049 52.2493 19.7962V14.1141C52.2493 13.4055 51.6748 12.8311 50.9662 12.8311Z" fill="#A8D4E6" stroke="#8ABDD4" stroke-width="0.549883"/>
<path d="M60.1313 12.8301H56.2821C55.5735 12.8301 54.999 13.4045 54.999 14.1131V19.7953C54.999 20.5039 55.5735 21.0783 56.2821 21.0783H60.1313C60.8399 21.0783 61.4143 20.5039 61.4143 19.7953V14.1131C61.4143 13.4045 60.8399 12.8301 60.1313 12.8301Z" fill="#A8D4E6" stroke="#8ABDD4" stroke-width="0.549883"/>
<path d="M67.8291 12.8311H76.9938C80.6597 12.8311 82.4926 14.664 82.4926 17.4134V21.9958H67.8291V12.8311Z" fill="#A8D4E6" stroke="#8ABDD4" stroke-width="0.549883"/>
<path d="M84.3253 25.6611H3.67578V30.2435H84.3253V25.6611Z" fill="#33845D"/>
<path d="M66.1793 14.6631H64.8963C64.4913 14.6631 64.1631 14.9913 64.1631 15.3963V29.5099C64.1631 29.9148 64.4913 30.2431 64.8963 30.2431H66.1793C66.5842 30.2431 66.9125 29.9148 66.9125 29.5099V15.3963C66.9125 14.9913 66.5842 14.6631 66.1793 14.6631Z" fill="#93B8CC"/>
<path d="M83.7757 20.1621H82.6759C82.0686 20.1621 81.5762 20.6545 81.5762 21.2619V22.7282C81.5762 23.3356 82.0686 23.828 82.6759 23.828H83.7757C84.3831 23.828 84.8755 23.3356 84.8755 22.7282V21.2619C84.8755 20.6545 84.3831 20.1621 83.7757 20.1621Z" fill="#FCD34D"/>
<path d="M4.59271 20.1621H3.67624C3.17008 20.1621 2.75977 20.5724 2.75977 21.0786V22.9115C2.75977 23.4177 3.17008 23.828 3.67624 23.828H4.59271C5.09886 23.828 5.50918 23.4177 5.50918 22.9115V21.0786C5.50918 20.5724 5.09886 20.1621 4.59271 20.1621Z" fill="#EF4444"/>
<path d="M81.5762 9.16504H70.5786C70.0724 9.16504 69.6621 9.57536 69.6621 10.0815V11.5479C69.6621 12.054 70.0724 12.4643 70.5786 12.4643H81.5762C82.0824 12.4643 82.4927 12.054 82.4927 11.5479V10.0815C82.4927 9.57536 82.0824 9.16504 81.5762 9.16504Z" fill="#1F2937"/>
<path d="M18.34 44.3568C21.5794 44.3568 24.2054 41.7308 24.2054 38.4914C24.2054 35.252 21.5794 32.626 18.34 32.626C15.1006 32.626 12.4746 35.252 12.4746 38.4914C12.4746 41.7308 15.1006 44.3568 18.34 44.3568Z" fill="#374151"/>
<path d="M18.3393 41.791C20.1615 41.791 21.6386 40.3138 21.6386 38.4917C21.6386 36.6695 20.1615 35.1924 18.3393 35.1924C16.5172 35.1924 15.04 36.6695 15.04 38.4917C15.04 40.3138 16.5172 41.791 18.3393 41.791Z" fill="#6B7280"/>
<path d="M69.6623 44.3568C72.9017 44.3568 75.5277 41.7308 75.5277 38.4914C75.5277 35.252 72.9017 32.626 69.6623 32.626C66.4229 32.626 63.7969 35.252 63.7969 38.4914C63.7969 41.7308 66.4229 44.3568 69.6623 44.3568Z" fill="#374151"/>
<path d="M69.6626 41.791C71.4847 41.791 72.9619 40.3138 72.9619 38.4917C72.9619 36.6695 71.4847 35.1924 69.6626 35.1924C67.8404 35.1924 66.3633 36.6695 66.3633 38.4917C66.3633 40.3138 67.8404 41.791 69.6626 41.791Z" fill="#6B7280"/>
</g>
<defs>
<clipPath id="clip0_493_6875">
<rect width="88.0018" height="43.9906" fill="white"/>
</clipPath>
</defs>
</svg>
